<?xml version="1.0" ?><!DOCTYPE svg  PUBLIC '-//W3C//DTD SVG 1.1//EN'  'http://www.w3.org/Graphics/SVG/1.1/DTD/svg11.dtd'><svg height="128px" id="Layer_1" style="enable-background:new 0 0 128 128;" version="1.1" viewBox="0 0 128 128" width="128px" xml:space="preserve" xmlns="http://www.w3.org/2000/svg" xmlns:xlink="http://www.w3.org/1999/xlink"><style type="text/css">
	.st0{fill:#16B9BA;}
	.st1{fill:#2B3E53;stroke:#F0E50A;stroke-width:2;stroke-miterlimit:10;}
	.st2{clip-path:url(#SVGID_2_);}
	.st3{opacity:0.7;}
	.st4{fill:#97D1CF;}
	.st5{fill:#E0E5EB;}
	.st6{fill:#2B3E53;}
	.st7{fill:#FFFFFF;}
	.st8{opacity:0.21;}
	.st9{clip-path:url(#SVGID_4_);}
	.st10{fill:#12122A;}
	.st11{fill:#0067B1;}
	.st12{fill:#00CAF7;}
	.st13{fill:#ECF0F1;}
</style><g><circle class="st0" cx="64" cy="64" r="64"/><g><circle class="st1" cx="27" cy="26.5" r="4.3"/><circle class="st1" cx="103" cy="26.5" r="4.3"/><circle class="st1" cx="27" cy="100.5" r="4.3"/><circle class="st1" cx="103" cy="100.5" r="4.3"/></g><g><defs><circle cx="64" cy="64" id="SVGID_1_" r="64"/></defs><clipPath id="SVGID_2_"><use style="overflow:visible;" xlink:href="#SVGID_1_"/></clipPath><g class="st2"><g class="st3"><rect class="st4" height="3" width="31" x="97" y="41.5"/><rect class="st4" height="3" width="31" x="97" y="47.5"/><rect class="st4" height="3" width="31" x="97" y="53.5"/><rect class="st4" height="3" width="31" x="97" y="59.5"/><rect class="st4" height="3" width="31" x="97" y="65.5"/><rect class="st4" height="3" width="31" x="97" y="71.5"/><rect class="st4" height="3" width="31" x="97" y="77.5"/><rect class="st4" height="3" width="31" x="97" y="83.5"/></g><g class="st3"><rect class="st4" height="3" width="31" y="41.5"/><rect class="st4" height="3" width="31" y="47.5"/><rect class="st4" height="3" width="31" y="53.5"/><rect class="st4" height="3" width="31" y="59.5"/><rect class="st4" height="3" width="31" y="65.5"/><rect class="st4" height="3" width="31" y="71.5"/><rect class="st4" height="3" width="31" y="77.5"/><rect class="st4" height="3" width="31" y="83.5"/></g><g class="st3"><rect class="st4" height="30" width="3" x="83" y="98"/><rect class="st4" height="30" width="3" x="77" y="98"/><rect class="st4" height="30" width="3" x="71" y="98"/><rect class="st4" height="30" width="3" x="65" y="98"/><rect class="st4" height="30" width="3" x="59" y="98"/><rect class="st4" height="30" width="3" x="53" y="98"/><rect class="st4" height="30" width="3" x="47" y="98"/><rect class="st4" height="30" width="3" x="41" y="98"/></g><g class="st3"><rect class="st4" height="31" width="3" x="83"/><rect class="st4" height="31" width="3" x="77"/><rect class="st4" height="31" width="3" x="71"/><rect class="st4" height="31" width="3" x="65"/><rect class="st4" height="31" width="3" x="59"/><rect class="st4" height="31" width="3" x="53"/><rect class="st4" height="31" width="3" x="47"/><rect class="st4" height="31" width="3" x="41"/></g></g></g><g><g><path class="st5" d="M42.5,33c-0.8,0-1.5-0.7-1.5-1.5v-6c0-0.8,0.7-1.5,1.5-1.5s1.5,0.7,1.5,1.5v6C44,32.3,43.3,33,42.5,33z"/><path class="st5" d="M48.5,33c-0.8,0-1.5-0.7-1.5-1.5v-6c0-0.8,0.7-1.5,1.5-1.5s1.5,0.7,1.5,1.5v6C50,32.3,49.3,33,48.5,33z"/><path class="st5" d="M54.5,33c-0.8,0-1.5-0.7-1.5-1.5v-6c0-0.8,0.7-1.5,1.5-1.5s1.5,0.7,1.5,1.5v6C56,32.3,55.3,33,54.5,33z"/><path class="st5" d="M60.5,33c-0.8,0-1.5-0.7-1.5-1.5v-6c0-0.8,0.7-1.5,1.5-1.5s1.5,0.7,1.5,1.5v6C62,32.3,61.3,33,60.5,33z"/><path class="st5" d="M66.5,33c-0.8,0-1.5-0.7-1.5-1.5v-6c0-0.8,0.7-1.5,1.5-1.5s1.5,0.7,1.5,1.5v6C68,32.3,67.3,33,66.5,33z"/><path class="st5" d="M72.5,33c-0.8,0-1.5-0.7-1.5-1.5v-6c0-0.8,0.7-1.5,1.5-1.5s1.5,0.7,1.5,1.5v6C74,32.3,73.3,33,72.5,33z"/><path class="st5" d="M78.5,33c-0.8,0-1.5-0.7-1.5-1.5v-6c0-0.8,0.7-1.5,1.5-1.5s1.5,0.7,1.5,1.5v6C80,32.3,79.3,33,78.5,33z"/><path class="st5" d="M84.5,33c-0.8,0-1.5-0.7-1.5-1.5v-6c0-0.8,0.7-1.5,1.5-1.5s1.5,0.7,1.5,1.5v6C86,32.3,85.3,33,84.5,33z"/></g><g><path class="st5" d="M42.5,103c-0.8,0-1.5-0.7-1.5-1.5v-6c0-0.8,0.7-1.5,1.5-1.5s1.5,0.7,1.5,1.5v6C44,102.3,43.3,103,42.5,103z"/><path class="st5" d="M48.5,103c-0.8,0-1.5-0.7-1.5-1.5v-6c0-0.8,0.7-1.5,1.5-1.5s1.5,0.7,1.5,1.5v6C50,102.3,49.3,103,48.5,103z"/><path class="st5" d="M54.5,103c-0.8,0-1.5-0.7-1.5-1.5v-6c0-0.8,0.7-1.5,1.5-1.5s1.5,0.7,1.5,1.5v6C56,102.3,55.3,103,54.5,103z"/><path class="st5" d="M60.5,103c-0.8,0-1.5-0.7-1.5-1.5v-6c0-0.8,0.7-1.5,1.5-1.5s1.5,0.7,1.5,1.5v6C62,102.3,61.3,103,60.5,103z"/><path class="st5" d="M66.5,103c-0.8,0-1.5-0.7-1.5-1.5v-6c0-0.8,0.7-1.5,1.5-1.5s1.5,0.7,1.5,1.5v6C68,102.3,67.3,103,66.5,103z"/><path class="st5" d="M72.5,103c-0.8,0-1.5-0.7-1.5-1.5v-6c0-0.8,0.7-1.5,1.5-1.5s1.5,0.7,1.5,1.5v6C74,102.3,73.3,103,72.5,103z"/><path class="st5" d="M78.5,103c-0.8,0-1.5-0.7-1.5-1.5v-6c0-0.8,0.7-1.5,1.5-1.5s1.5,0.7,1.5,1.5v6C80,102.3,79.3,103,78.5,103z"/><path class="st5" d="M84.5,103c-0.8,0-1.5-0.7-1.5-1.5v-6c0-0.8,0.7-1.5,1.5-1.5s1.5,0.7,1.5,1.5v6C86,102.3,85.3,103,84.5,103z"/></g><g><path class="st5" d="M31,86.5h-6c-0.8,0-1.5-0.7-1.5-1.5s0.7-1.5,1.5-1.5h6c0.8,0,1.5,0.7,1.5,1.5S31.8,86.5,31,86.5z"/><path class="st5" d="M31,80.5h-6c-0.8,0-1.5-0.7-1.5-1.5s0.7-1.5,1.5-1.5h6c0.8,0,1.5,0.7,1.5,1.5S31.8,80.5,31,80.5z"/><path class="st5" d="M31,74.5h-6c-0.8,0-1.5-0.7-1.5-1.5s0.7-1.5,1.5-1.5h6c0.8,0,1.5,0.7,1.5,1.5S31.8,74.5,31,74.5z"/><path class="st5" d="M31,68.5h-6c-0.8,0-1.5-0.7-1.5-1.5s0.7-1.5,1.5-1.5h6c0.8,0,1.5,0.7,1.5,1.5S31.8,68.5,31,68.5z"/><path class="st5" d="M31,62.5h-6c-0.8,0-1.5-0.7-1.5-1.5s0.7-1.5,1.5-1.5h6c0.8,0,1.5,0.7,1.5,1.5S31.8,62.5,31,62.5z"/><path class="st5" d="M31,56.5h-6c-0.8,0-1.5-0.7-1.5-1.5s0.7-1.5,1.5-1.5h6c0.8,0,1.5,0.7,1.5,1.5S31.8,56.5,31,56.5z"/><path class="st5" d="M31,50.5h-6c-0.8,0-1.5-0.7-1.5-1.5s0.7-1.5,1.5-1.5h6c0.8,0,1.5,0.7,1.5,1.5S31.8,50.5,31,50.5z"/><path class="st5" d="M31,44.5h-6c-0.8,0-1.5-0.7-1.5-1.5s0.7-1.5,1.5-1.5h6c0.8,0,1.5,0.7,1.5,1.5S31.8,44.5,31,44.5z"/></g><g><path class="st5" d="M102,86.5h-6c-0.8,0-1.5-0.7-1.5-1.5s0.7-1.5,1.5-1.5h6c0.8,0,1.5,0.7,1.5,1.5S102.8,86.5,102,86.5z"/><path class="st5" d="M102,80.5h-6c-0.8,0-1.5-0.7-1.5-1.5s0.7-1.5,1.5-1.5h6c0.8,0,1.5,0.7,1.5,1.5S102.8,80.5,102,80.5z"/><path class="st5" d="M102,74.5h-6c-0.8,0-1.5-0.7-1.5-1.5s0.7-1.5,1.5-1.5h6c0.8,0,1.5,0.7,1.5,1.5S102.8,74.5,102,74.5z"/><path class="st5" d="M102,68.5h-6c-0.8,0-1.5-0.7-1.5-1.5s0.7-1.5,1.5-1.5h6c0.8,0,1.5,0.7,1.5,1.5S102.8,68.5,102,68.5z"/><path class="st5" d="M102,62.5h-6c-0.8,0-1.5-0.7-1.5-1.5s0.7-1.5,1.5-1.5h6c0.8,0,1.5,0.7,1.5,1.5S102.8,62.5,102,62.5z"/><path class="st5" d="M102,56.5h-6c-0.8,0-1.5-0.7-1.5-1.5s0.7-1.5,1.5-1.5h6c0.8,0,1.5,0.7,1.5,1.5S102.8,56.5,102,56.5z"/><path class="st5" d="M102,50.5h-6c-0.8,0-1.5-0.7-1.5-1.5s0.7-1.5,1.5-1.5h6c0.8,0,1.5,0.7,1.5,1.5S102.8,50.5,102,50.5z"/><path class="st5" d="M102,44.5h-6c-0.8,0-1.5-0.7-1.5-1.5s0.7-1.5,1.5-1.5h6c0.8,0,1.5,0.7,1.5,1.5S102.8,44.5,102,44.5z"/></g></g><path class="st6" d="M90,93H38c-1.7,0-3-1.3-3-3V38c0-1.7,1.3-3,3-3h52c1.7,0,3,1.3,3,3v52C93,91.7,91.7,93,90,93z"/><path class="st7" d="M87,29H41c-1.7,0-3,1.3-3,3v3h52v-3C90,30.3,88.7,29,87,29z"/><path class="st7" d="M87,99H41c-1.7,0-3-1.3-3-3v-3h52v3C90,97.7,88.7,99,87,99z"/><path class="st7" d="M29,41v46c0,1.7,1.3,3,3,3h3V38h-3C30.3,38,29,39.3,29,41z"/><path class="st7" d="M99,41v46c0,1.7-1.3,3-3,3h-3V38h3C97.7,38,99,39.3,99,41z"/><g class="st8"><defs><path class="st8" d="M90,93H38c-1.7,0-3-1.3-3-3V38c0-1.7,1.3-3,3-3h52c1.7,0,3,1.3,3,3v52C93,91.7,91.7,93,90,93z     " id="SVGID_3_"/></defs><clipPath id="SVGID_4_"><use style="overflow:visible;" xlink:href="#SVGID_3_"/></clipPath><g class="st9"><polygon class="st10" points="42.5,40.2 47.6,45.3 45.8,49 39.4,42.7    "/><polygon class="st10" points="88.5,40.2 93.6,45.3 93.8,51 85.4,42.7    "/><polygon class="st10" points="42.5,86.1 51.5,95.2 45.8,94.9 39.4,88.6    "/><polygon class="st10" points="88.5,86.1 93.6,91.2 93.8,96.9 85.4,88.6    "/></g></g><path class="st11" d="M81.3,83.3H46.7c-1.1,0-2-0.9-2-2V46.7c0-1.1,0.9-2,2-2h34.5c1.1,0,2,0.9,2,2v34.5   C83.3,82.4,82.4,83.3,81.3,83.3z"/><g><circle class="st12" cx="48.7" cy="49.3" r="1.5"/><circle class="st12" cx="54.7" cy="49.3" r="1.5"/><circle class="st12" cx="60.7" cy="49.3" r="1.5"/><circle class="st12" cx="66.7" cy="49.3" r="1.5"/><circle class="st12" cx="72.7" cy="49.3" r="1.5"/><circle class="st12" cx="78.7" cy="49.3" r="1.5"/><circle class="st12" cx="48.7" cy="55.3" r="1.5"/><circle class="st12" cx="54.7" cy="55.3" r="1.5"/><circle class="st12" cx="60.7" cy="55.3" r="1.5"/><circle class="st12" cx="66.7" cy="55.3" r="1.5"/><circle class="st12" cx="72.7" cy="55.3" r="1.5"/><circle class="st12" cx="78.7" cy="55.3" r="1.5"/><circle class="st12" cx="48.7" cy="61.3" r="1.5"/><circle class="st12" cx="54.7" cy="61.3" r="1.5"/><circle class="st12" cx="60.7" cy="61.3" r="1.5"/><circle class="st12" cx="66.7" cy="61.3" r="1.5"/><circle class="st12" cx="72.7" cy="61.3" r="1.5"/><circle class="st12" cx="78.7" cy="61.3" r="1.5"/><circle class="st12" cx="48.7" cy="67.3" r="1.5"/><circle class="st12" cx="54.7" cy="67.3" r="1.5"/><circle class="st12" cx="60.7" cy="67.3" r="1.5"/><circle class="st12" cx="66.7" cy="67.3" r="1.5"/><circle class="st12" cx="72.7" cy="67.3" r="1.5"/><circle class="st12" cx="78.7" cy="67.3" r="1.5"/><circle class="st12" cx="48.7" cy="73.3" r="1.5"/><circle class="st12" cx="54.7" cy="73.3" r="1.5"/><circle class="st12" cx="60.7" cy="73.3" r="1.5"/><circle class="st12" cx="66.7" cy="73.3" r="1.5"/><circle class="st12" cx="72.7" cy="73.3" r="1.5"/><circle class="st12" cx="78.7" cy="73.3" r="1.5"/><circle class="st12" cx="48.7" cy="79.3" r="1.5"/><circle class="st12" cx="54.7" cy="79.3" r="1.5"/><circle class="st12" cx="60.7" cy="79.3" r="1.5"/><circle class="st12" cx="66.7" cy="79.3" r="1.5"/><circle class="st12" cx="72.7" cy="79.3" r="1.5"/><circle class="st12" cx="78.7" cy="79.3" r="1.5"/></g><g><circle class="st13" cx="41" cy="41.5" r="2"/><circle class="st13" cx="87" cy="41.5" r="2"/><circle class="st13" cx="41" cy="87.5" r="2"/><circle class="st13" cx="87" cy="87.5" r="2"/></g></g></svg>